<?xml version="1.0" encoding="utf-8"?>
<!-- Generator: Adobe Illustrator 25.0.1, SVG Export Plug-In . SVG Version: 6.00 Build 0)  -->
<svg version="1.1" id="Layer_1" xmlns="http://www.w3.org/2000/svg" xmlns:xlink="http://www.w3.org/1999/xlink" x="0px" y="0px"
	 viewBox="0 0 365 90" style="enable-background:new 0 0 365 90;" xml:space="preserve">
<style type="text/css">
	.st0{fill:#D8E3FF;}
	.st1{fill:#504B8E;}
</style>
<circle class="st0" cx="50.7" cy="42.4" r="36.5"/>
<g>
	<g>
		<path class="st1" d="M120.1,45.4h-18.5v12.7H122l-0.9,6.1H94.3V22.2h26.6v6.2h-19.3v10.8h18.5V45.4z"/>
		<path class="st1" d="M153,19.7v36c0,3.5,0,6.7,0.1,8.6h-7c-0.1-0.8-0.3-2.7-0.3-4c-1.5,3-4,4.6-9,4.6c-8.1,0-12.2-6.7-12.2-16.3
			c0-9.4,5-16.4,13.5-16.4c4.8,0,7,1.8,7.7,3.2V19.7H153z M132,48.3c0,6.5,2.4,10.6,7.1,10.6c5.9,0,7-4.2,7-10.7
			c0-7.4-1.7-10.1-6.7-10.1C134.9,38.2,132,41.6,132,48.3z"/>
		<path class="st1" d="M185.8,55.1c0,4.3,0.1,7.6,0.1,9.2h-7c-0.2-0.9-0.2-2.5-0.3-4.2c-1.8,3.3-4.7,4.7-8.9,4.7
			c-5.8,0-9.7-3.4-9.7-11V32.8h7.2v19.8c0,3.6,1.2,6.2,5.1,6.2c3.8,0,6.2-2.4,6.2-8.4V32.8h7.3V55.1z"/>
		<path class="st1" d="M198.2,52c0.7,4.4,3.6,6.9,8.2,6.9c4.9,0,7.1-2.3,7.1-5.8c0-4.1-2.3-5.8-8.8-7.7c-9.4-2.7-12.8-6-12.8-12.1
			c0-7.4,5.8-11.7,13.8-11.7c9.7,0,13.9,5.3,14.3,11.8h-7.3c-0.6-3.5-2.4-6-7.1-6c-4.2,0-6.2,2-6.2,5.2c0,3.4,2.1,4.5,8.4,6.4
			c10.6,3.1,13.3,7.3,13.3,13.3c0,6.9-4.7,12.5-15,12.5c-9,0-14.7-4.6-15.3-12.8H198.2z"/>
		<path class="st1" d="M233.6,61.2v15.3h-7.2V42c0-4.3,0-7.2-0.1-9.2h7c0.1,1,0.2,2.8,0.2,4.5c1.3-2.6,4.1-5.1,9.3-5.1
			c6.6,0,11.8,5.1,11.8,16c0,10.4-5.7,16.7-13.3,16.7C237.2,64.8,234.8,63.3,233.6,61.2z M247.4,48.3c0-7-2.8-10.1-7-10.1
			c-5.5,0-7.2,3.3-7.2,10.5c0,6.4,1.4,10.3,6.9,10.3C244.8,58.9,247.4,55.2,247.4,48.3z"/>
		<path class="st1" d="M283.8,56.5c0,2.1,0.2,5.7,0.4,7.8h-6.4c-0.2-1-0.4-2.8-0.5-4.2c-1.3,2.8-4.3,4.7-9.1,4.7
			c-7.8,0-10.4-5-10.4-9.6c0-5.4,3.6-10.2,14.7-10.2c1.3,0,2.6,0,4.1,0v-2.5c0-2.7-0.8-5.1-5.1-5.1c-4,0-5.1,1.9-5.5,4.7h-7
			c0.4-5.1,3.4-9.9,12.6-9.9c7.2,0,12,2.6,12,10.2V56.5z M276.9,49.8c-1.2,0-2.5,0-4.2,0c-6.3,0-7.5,2.6-7.5,4.9
			c0,2.5,1.5,4.5,4.9,4.5c5.4,0,6.8-3.6,6.8-8.8V49.8z"/>
		<path class="st1" d="M316.2,53.6c-1,6.3-5,11.2-13.4,11.2c-9.4,0-13.9-5.9-13.9-16.3c0-9.7,5.2-16.4,14.3-16.4
			c9.7,0,12.7,6.9,12.9,11.5h-7.2c-0.4-3.1-1.9-5.9-5.9-5.9c-4.8,0-6.8,4.3-6.8,10.5c0,7.6,2.4,11,6.7,11c3.8,0,5.2-2.4,6-5.7H316.2
			z"/>
		<path class="st1" d="M326.2,50.1c0,4.7,1.9,9,6.8,9c4.2,0,5.5-2.7,6-4.2h7.1c-1.4,4.8-4.8,10-13.3,10c-10,0-13.9-7.2-13.9-16.3
			c0-7.8,3.9-16.3,14.2-16.3c10.3,0,13.4,7.6,13.4,15.4c0,0.3,0,2.1-0.1,2.5H326.2z M339.4,45.3c-0.1-4.2-1.8-7.5-6.5-7.5
			c-5.2,0-6.5,4.4-6.7,7.5H339.4z"/>
	</g>
</g>
<g>
	<g>
		<path class="st1" d="M23.8,45.8c1-0.8,2.3-1.1,3.5-1.5c0.3-0.1,0.4-0.2,0.4-0.5c0.1-1.3,0.1-2.5-0.3-3.7c-0.3-0.8-0.7-1.3-1.5-1.6
			c-0.3-0.1-0.6-0.3-0.9-0.5c-0.5-0.4-0.4-0.9,0.2-1.1c0.7-0.2,1.4-0.4,2.1-0.6c-0.8-0.8-1.3-1.8-1.5-2.8c-0.4-1.9-0.6-3.8,0.2-5.7
			c0.6-1.5,1.8-2.2,3.4-2.4c3.2-0.4,6.4-0.9,9.7-1.3c3-0.4,6-0.8,9.1-1.2c2.8-0.4,5.5-0.8,8.3-1.2c0.5-0.1,1-0.2,1.6-0.2
			c0.4,0,0.7,0.1,1.1,0.2c4,1.2,7.9,2.4,11.9,3.6c1.8,0.5,3.5,1,5.3,1.6c0.2,0.1,0.4,0.3,0.5,0.4c0,0.2-0.1,0.5-0.2,0.6
			c-0.2,0.2-0.5,0.4-0.8,0.5c-1.1,0.4-1.6,1.2-1.9,2.2c-0.3,1.1-0.2,2.2-0.1,3.2c0,0.1,0.2,0.3,0.4,0.4c0.9,0.4,1.9,0.7,2.8,1.1
			c0.2,0.1,0.4,0.4,0.6,0.6c-0.2,0.1-0.5,0.3-0.7,0.4c-0.7,0.2-1.4,0.3-2.1,0.5c1.2,1.6,1.3,3.3,1.1,5.2c-0.2,1.8-0.6,3.5-2.2,4.8
			c0.4,0.1,0.7,0.2,1,0.3c0.5,0.2,0.6,0.6,0.3,1c-0.2,0.2-0.5,0.4-0.7,0.5c-1.1,0.3-1.7,1.2-1.9,2.2C72,51.8,72,52.9,72.1,54
			c0,0.1,0.2,0.2,0.3,0.3c0.7,0.3,1.5,0.5,2.2,0.8c0.3,0.1,0.7,0.3,1,0.5c0.1,0.1,0.3,0.3,0.3,0.4c0,0.1-0.2,0.2-0.4,0.3
			c-1.6,0.4-3.2,0.8-4.8,1.2c-2.5,0.6-5.1,1.2-7.6,1.8c-4.4,1.1-8.8,2.1-13.1,3.2c-1.1,0.3-2.2,0.5-3.3,0.8c-0.2,0.1-0.5,0-0.7,0
			c-3.4-1.1-6.9-2.2-10.3-3.3c-3-1-6-1.9-9-2.9c-0.9-0.3-1.4-1-1.9-1.8c-0.5-0.9-0.7-2-0.9-3c0-0.2-0.1-0.3-0.1-0.5
			c0-0.6,0-1.3,0-1.9c0.2-0.9,0.3-1.8,0.9-2.5c0.2-0.3,0.4-0.5,0.6-0.8c-0.5-0.2-1-0.4-1.4-0.5C23.8,45.9,23.8,45.8,23.8,45.8z
			 M48,40.4c0-0.1,0.1-0.1,0.1-0.2c0.1-2,0.1-4,0.2-6c0-0.1-0.2-0.3-0.3-0.3c-2-0.7-4-1.3-6-2c-4.1-1.4-8.3-2.7-12.4-4.1
			c-1.1-0.3-1.7-0.1-2.1,1c-0.5,1.7-0.4,3.5,0.3,5.2c0.2,0.5,0.6,0.9,1.2,1.1c2,0.5,4,1.1,6,1.6c3.6,1,7.2,2,10.9,3.1
			C46.5,40,47.2,40.2,48,40.4z M53.5,50.5c0.1,0,0.1,0,0.2,0c4.2-1.2,8.3-2.3,12.5-3.5c2-0.6,4-1.2,5.9-1.7c0.9-0.2,1.4-0.7,1.7-1.5
			c0.5-1.3,0.6-2.7,0.4-4.1c0-0.4-0.2-0.8-0.3-1.1c-0.4-0.8-1-1-1.8-0.8c-1.8,0.6-3.6,1.2-5.3,1.7c-4.4,1.4-8.8,2.9-13.1,4.3
			c-0.3,0.1-0.4,0.2-0.4,0.6c0.1,1.9,0.1,3.8,0.2,5.7C53.4,50.2,53.4,50.3,53.5,50.5z M46.4,60.6c0-0.1,0-0.2,0-0.2
			c0.1-2,0.1-4,0.2-5.9c0-0.3-0.1-0.4-0.3-0.4c-1.6-0.5-3.1-1-4.7-1.5c-4.6-1.5-9.2-3-13.8-4.5c-1-0.3-1.7,0-2,1
			c-0.5,1.7-0.4,3.4,0.2,5c0.2,0.6,0.6,1.1,1.3,1.2c2.4,0.7,4.8,1.3,7.2,2c3.3,0.9,6.6,1.8,9.8,2.7C45,60.2,45.7,60.4,46.4,60.6z
			 M49.1,40.4c7.9-2,15.8-3.9,23.6-5.9c0-1-0.1-1.9,0-2.8c0.1-0.9,0.3-1.8,0.5-2.7c-0.1,0-0.3,0.1-0.5,0.1c-3.7,0.8-7.3,1.5-11,2.3
			c-4,0.8-8,1.6-12,2.4c-0.3,0.1-0.4,0.2-0.4,0.5c0,1.3-0.1,2.6-0.1,3.9C49.1,39,49.1,39.7,49.1,40.4z M52.3,50.5c0-0.2,0-0.2,0-0.3
			c-0.1-1.9-0.1-3.9-0.2-5.8c0-0.3-0.1-0.3-0.4-0.4c-2.7-0.5-5.4-1.1-8.2-1.7c-4.3-0.9-8.6-1.8-12.9-2.7c-0.9-0.2-1.7-0.3-2.6-0.5
			c0.1,0.4,0.3,0.8,0.4,1.2c0.3,1.3,0.3,2.6,0.1,3.9c0,0.3,0,0.4,0.3,0.5c2.9,0.7,5.8,1.4,8.7,2.2c3.8,1,7.7,1.9,11.5,2.9
			C50.2,50,51.3,50.2,52.3,50.5z M47.5,60.6c0.1,0,0.2,0,0.4,0c4.6-1.1,9.1-2.3,13.7-3.4c3.1-0.8,6.2-1.5,9.2-2.3
			c0.3-0.1,0.4-0.2,0.4-0.5c-0.2-1.3-0.2-2.5,0.1-3.8c0.1-0.4,0.2-0.8,0.4-1.2c-0.1,0-0.2,0-0.3,0c-1.2,0.2-2.3,0.5-3.5,0.7
			c-2.4,0.5-4.8,1-7.2,1.5c-1.9,0.4-3.7,0.9-5.6,1.3c-0.8,0.2-1.5,0.7-2.3,0.3c0,0-0.1,0-0.1,0c-1.5,0.3-3.1,0.6-4.6,0.9
			c-0.3,0.1-0.4,0.2-0.4,0.5c0,1.6-0.1,3.3-0.1,4.9C47.5,59.8,47.5,60.2,47.5,60.6z"/>
	</g>
</g>
</svg>
