<?xml version="1.0" encoding="utf-8"?>
<!-- Generator: Adobe Illustrator 25.0.1, SVG Export Plug-In . SVG Version: 6.00 Build 0)  -->
<svg version="1.1" id="Layer_1" xmlns="http://www.w3.org/2000/svg" xmlns:xlink="http://www.w3.org/1999/xlink" x="0px" y="0px"
	 viewBox="0 0 90 73" style="enable-background:new 0 0 90 73;" xml:space="preserve">
<style type="text/css">
	.st0{fill:#D8E3FF;}
	.st1{fill:#504B8E;}
</style>
<circle class="st0" cx="52.8" cy="36.5" r="36.5"/>
<g>
	<g>
		<path class="st1" d="M26.9,39.9c1-0.8,2.3-1.1,3.5-1.5c0.3-0.1,0.4-0.2,0.4-0.5c0.1-1.3,0.1-2.5-0.3-3.7c-0.3-0.8-0.7-1.3-1.5-1.6
			c-0.3-0.1-0.6-0.3-0.9-0.5c-0.5-0.4-0.4-0.9,0.2-1.1c0.7-0.2,1.4-0.4,2.1-0.6c-0.8-0.8-1.3-1.8-1.5-2.8c-0.4-1.9-0.6-3.8,0.2-5.7
			c0.6-1.5,1.8-2.2,3.4-2.4c3.2-0.4,6.4-0.9,9.7-1.3c3-0.4,6-0.8,9.1-1.2c2.8-0.4,5.5-0.8,8.3-1.2c0.5-0.1,1-0.2,1.6-0.2
			c0.4,0,0.7,0.1,1.1,0.2c4,1.2,7.9,2.4,11.9,3.6c1.8,0.5,3.5,1,5.3,1.6c0.2,0.1,0.4,0.3,0.5,0.4c0,0.2-0.1,0.5-0.2,0.6
			c-0.2,0.2-0.5,0.4-0.8,0.5c-1.1,0.4-1.6,1.2-1.9,2.2c-0.3,1.1-0.2,2.2-0.1,3.2c0,0.1,0.2,0.3,0.4,0.4c0.9,0.4,1.9,0.7,2.8,1.1
			c0.2,0.1,0.4,0.4,0.6,0.6c-0.2,0.1-0.5,0.3-0.7,0.4c-0.7,0.2-1.4,0.3-2.1,0.5c1.2,1.6,1.3,3.3,1.1,5.2c-0.2,1.8-0.6,3.5-2.2,4.8
			c0.4,0.1,0.7,0.2,1,0.3c0.5,0.2,0.6,0.6,0.3,1c-0.2,0.2-0.5,0.4-0.7,0.5c-1.1,0.3-1.7,1.2-1.9,2.2c-0.3,1.1-0.2,2.2-0.1,3.3
			c0,0.1,0.2,0.2,0.3,0.3c0.7,0.3,1.5,0.5,2.2,0.8c0.3,0.1,0.7,0.3,1,0.5c0.1,0.1,0.3,0.3,0.3,0.4c0,0.1-0.2,0.2-0.4,0.3
			c-1.6,0.4-3.2,0.8-4.8,1.2c-2.5,0.6-5.1,1.2-7.6,1.8c-4.4,1.1-8.8,2.1-13.1,3.2c-1.1,0.3-2.2,0.5-3.3,0.8c-0.2,0.1-0.5,0-0.7,0
			c-3.4-1.1-6.9-2.2-10.3-3.3c-3-1-6-1.9-9-2.9c-0.9-0.3-1.4-1-1.9-1.8c-0.5-0.9-0.7-2-0.9-3c0-0.2-0.1-0.3-0.1-0.5
			c0-0.6,0-1.3,0-1.9c0.2-0.9,0.3-1.8,0.9-2.5c0.2-0.3,0.4-0.5,0.6-0.8c-0.5-0.2-1-0.4-1.4-0.5C26.9,40,26.9,39.9,26.9,39.9z
			 M51.1,34.5c0-0.1,0.1-0.1,0.1-0.2c0.1-2,0.1-4,0.2-6c0-0.1-0.2-0.3-0.3-0.3c-2-0.7-4-1.3-6-2c-4.1-1.4-8.3-2.7-12.4-4.1
			c-1.1-0.3-1.7-0.1-2.1,1c-0.5,1.7-0.4,3.5,0.3,5.2c0.2,0.5,0.6,0.9,1.2,1.1c2,0.5,4,1.1,6,1.6c3.6,1,7.2,2,10.9,3.1
			C49.7,34.1,50.4,34.3,51.1,34.5z M56.6,44.6c0.1,0,0.1,0,0.2,0c4.2-1.2,8.3-2.3,12.5-3.5c2-0.6,4-1.2,5.9-1.7
			c0.9-0.2,1.4-0.7,1.7-1.5c0.5-1.3,0.6-2.7,0.4-4.1c0-0.4-0.2-0.8-0.3-1.1c-0.4-0.8-1-1-1.8-0.8c-1.8,0.6-3.6,1.2-5.3,1.7
			c-4.4,1.4-8.8,2.9-13.1,4.3c-0.3,0.1-0.4,0.2-0.4,0.6c0.1,1.9,0.1,3.8,0.2,5.7C56.5,44.3,56.5,44.5,56.6,44.6z M49.5,54.7
			c0-0.1,0-0.2,0-0.2c0.1-2,0.1-4,0.2-5.9c0-0.3-0.1-0.4-0.3-0.4c-1.6-0.5-3.1-1-4.7-1.5c-4.6-1.5-9.2-3-13.8-4.5c-1-0.3-1.7,0-2,1
			c-0.5,1.7-0.4,3.4,0.2,5c0.2,0.6,0.6,1.1,1.3,1.2c2.4,0.7,4.8,1.3,7.2,2c3.3,0.9,6.6,1.8,9.8,2.7C48.1,54.3,48.8,54.5,49.5,54.7z
			 M52.2,34.5c7.9-2,15.8-3.9,23.6-5.9c0-1-0.1-1.9,0-2.8c0.1-0.9,0.3-1.8,0.5-2.7c-0.1,0-0.3,0.1-0.5,0.1c-3.7,0.8-7.3,1.5-11,2.3
			c-4,0.8-8,1.6-12,2.4c-0.3,0.1-0.4,0.2-0.4,0.5c0,1.3-0.1,2.6-0.1,3.9C52.2,33.2,52.2,33.8,52.2,34.5z M55.5,44.6
			c0-0.2,0-0.2,0-0.3c-0.1-1.9-0.1-3.9-0.2-5.8c0-0.3-0.1-0.3-0.4-0.4c-2.7-0.5-5.4-1.1-8.2-1.7c-4.3-0.9-8.6-1.8-12.9-2.7
			c-0.9-0.2-1.7-0.3-2.6-0.5c0.1,0.4,0.3,0.8,0.4,1.2c0.3,1.3,0.3,2.6,0.1,3.9c0,0.3,0,0.4,0.3,0.5c2.9,0.7,5.8,1.4,8.7,2.2
			c3.8,1,7.7,1.9,11.5,2.9C53.4,44.1,54.4,44.4,55.5,44.6z M50.6,54.7c0.1,0,0.2,0,0.4,0c4.6-1.1,9.1-2.3,13.7-3.4
			c3.1-0.8,6.2-1.5,9.2-2.3c0.3-0.1,0.4-0.2,0.4-0.5c-0.2-1.3-0.2-2.5,0.1-3.8c0.1-0.4,0.2-0.8,0.4-1.2c-0.1,0-0.2,0-0.3,0
			c-1.2,0.2-2.3,0.5-3.5,0.7c-2.4,0.5-4.8,1-7.2,1.5c-1.9,0.4-3.7,0.9-5.6,1.3c-0.8,0.2-1.5,0.7-2.3,0.3c0,0-0.1,0-0.1,0
			c-1.5,0.3-3.1,0.6-4.6,0.9c-0.3,0.1-0.4,0.2-0.4,0.5c0,1.6-0.1,3.3-0.1,4.9C50.6,54,50.6,54.3,50.6,54.7z"/>
	</g>
</g>
</svg>
